<svg height="511pt" viewBox="-4 0 511 511.99964" width="511pt" xmlns="http://www.w3.org/2000/svg"><path d="m475 329.570312c-17.714844 19.296876-40.769531 30.746094-64.828125 34.164063-31.179687 4.4375-64.03125-4.625-89.039063-27.589844-44.3125-40.667969-47.253906-109.5625-6.578124-153.867187 25.234374-27.492188 61.339843-39.058594 95.691406-34.164063 21.011718 2.996094 41.371094 12.140625 58.179687 27.589844 44.3125 40.667969 47.253907 109.5625 6.574219 153.867187zm0 0" fill="#ffe89c"/><path d="m189.628906 329.570312c-17.71875 19.296876-40.773437 30.746094-64.828125 34.164063-31.179687 4.4375-64.035156-4.625-89.039062-27.589844-44.316407-40.667969-47.257813-109.5625-6.578125-153.867187 25.234375-27.492188 61.339844-39.058594 95.6875-34.164063 21.011718 2.996094 41.371094 12.140625 58.179687 27.589844 44.3125 40.667969 47.257813 109.5625 6.578125 153.867187zm0 0" fill="#ffe89c"/><path d="m475 329.570312c-17.714844 19.296876-40.769531 30.746094-64.828125 34.164063-21.007813-2.996094-41.371094-12.140625-58.179687-27.589844-44.3125-40.667969-47.253907-109.5625-6.574219-153.867187 17.714843-19.296875 40.769531-30.746094 64.828125-34.164063 21.011718 2.996094 41.371094 12.140625 58.179687 27.589844 44.3125 40.667969 47.253907 109.5625 6.574219 153.867187zm0 0" fill="#fcf2b6"/><path d="m189.628906 329.570312c-17.71875 19.296876-40.773437 30.746094-64.828125 34.164063-21.011719-2.996094-41.371093-12.140625-58.179687-27.589844-44.3125-40.667969-47.257813-109.5625-6.578125-153.867187 17.71875-19.296875 40.773437-30.746094 64.828125-34.164063 21.011718 2.996094 41.371094 12.140625 58.179687 27.589844 44.3125 40.667969 47.257813 109.5625 6.578125 153.867187zm0 0" fill="#fcf2b6"/><path d="m471.492188 270.480469c-3.636719 19.246093-14.300782 36.300781-30.003907 48.03125-9.5625 7.132812-20.238281 11.738281-31.210937 13.9375-28.664063 5.75-59.441406-4.882813-78.046875-29.816407-13.039063-17.480468-18.191407-39.792968-14.132813-61.226562 3.632813-19.253906 14.300782-36.308594 30.003906-48.027344 16.714844-12.472656 37.28125-17.6875 57.921876-14.695312 1.371093.199218 2.746093.433594 4.097656.703125 18.945312 3.78125 35.609375 14.269531 47.234375 29.871093 13.042969 17.46875 18.191406 39.789063 14.136719 61.222657zm0 0" fill="#dbad5c"/><path d="m186.6875 267.167969c-4.863281 33.480469-30.417969 58.941406-61.824219 65.304687-8.550781 1.734375-17.542969 2.042969-26.660156.722656-21.566406-3.140624-41-15.273437-53.285156-33.296874-11.035157-16.191407-15.558594-35.785157-12.742188-55.1875 3.007813-20.636719 13.859375-38.871094 30.574219-51.332032 16.714844-12.472656 37.28125-17.699218 57.910156-14.695312 1.371094.199218 2.734375.433594 4.089844.703125 19.933594 4.007812 37.695312 15.714843 49.207031 32.59375 11.023438 16.191406 15.558594 35.785156 12.730469 55.1875zm0 0" fill="#dbad5c"/><path d="m471.492188 270.480469c-3.636719 19.246093-14.300782 36.300781-30.003907 48.03125-9.5625 7.132812-20.238281 11.738281-31.210937 13.9375-18.246094-3.652344-35.25-13.773438-47.214844-29.816407-13.039062-17.480468-18.191406-39.792968-14.136719-61.226562 3.644531-19.253906 14.300781-36.308594 30.015625-48.027344 9.40625-7.011718 20.019532-11.730468 31.179688-13.992187 18.945312 3.78125 35.609375 14.269531 47.234375 29.871093 13.042969 17.46875 18.191406 39.789063 14.136719 61.222657zm0 0" fill="#edc472"/><path d="m186.6875 267.167969c-4.863281 33.480469-30.417969 58.941406-61.824219 65.304687-19.898437-4.019531-37.613281-15.726562-49.105469-32.574218-11.035156-16.191407-15.558593-35.785157-12.742187-55.1875 2.996094-20.636719 13.855469-38.871094 30.5625-51.332032 9.394531-7.011718 20.007813-11.730468 31.171875-13.992187 19.933594 4.007812 37.695312 15.714843 49.207031 32.59375 11.023438 16.191406 15.558594 35.785156 12.730469 55.1875zm0 0" fill="#edc472"/><path d="m99.78125 437.289062 22.164062-17.222656c57.4375 72.417969 162.621094 85.203125 235.765626 28.359375 21.011718-16.324219 37.101562-36.621093 48.042968-59.003906 1.894532-3.871094 5.414063-6.699219 9.628906-7.59375l.421876-.089844c11.28125-2.402343 20.40625 9.230469 15.367187 19.601563-12.769531 26.277344-31.605469 50.101562-56.238281 69.242187-85.382813 66.347657-208.199219 51.351563-275.152344-33.292969zm0 0" fill="#24d3b5"/><path d="m75.820312 447.578125-3.789062-62.367187c-.203125-3.339844 3.015625-5.839844 6.203125-4.816407l59.496094 19.074219c3.644531 1.167969 4.488281 5.941406 1.46875 8.289062l-55.707031 43.289063c-3.023438 2.347656-7.4375.347656-7.671876-3.46875zm0 0" fill="#199a8e"/><path d="m404.40625 74.707031-22.167969 17.226563c-57.4375-72.417969-162.621093-85.203125-235.765625-28.359375-21.007812 16.324219-37.097656 36.617187-48.039062 59.003906-1.894532 3.871094-5.414063 6.699219-9.628906 7.59375l-.425782.089844c-11.277344 2.402343-20.402344-9.230469-15.363281-19.601563 12.769531-26.277344 31.605469-50.101562 56.238281-69.242187 85.378906-66.347657 208.199219-51.351563 275.152344 33.289062zm0 0" fill="#24d3b5"/><path d="m428.175781 64.679688 3.789063 62.367187c.203125 3.339844-3.015625 5.839844-6.203125 4.816406l-59.496094-19.074219c-3.644531-1.167968-4.484375-5.941406-1.464844-8.289062l55.707031-43.289062c3.019532-2.347657 7.4375-.347657 7.667969 3.46875zm0 0" fill="#199a8e"/><g fill="#ffe89c"><path d="m421.984375 276.792969c0-34.492188-40.691406-24.605469-40.691406-43.664063 0-9.351562 8.304687-11.316406 15.273437-11.316406 6.730469 0 10.398438 1.890625 13.074219 3.273438 1.550781.796874 2.777344 1.429687 4.117187 1.429687 3.996094 0 6-4.640625 6-7.238281 0-5.640625-9.027343-8.457032-17.234374-9.371094v-13.789062c0-4.277344-3.46875-7.742188-7.742188-7.742188-4.277344 0-7.746094 3.464844-7.746094 7.742188v14.441406c-12.203125 2.753906-19.226562 11.132812-19.226562 23.558594 0 31.152343 40.691406 20.421874 40.691406 43.660156 0 12-9.800781 13.789062-15.644531 13.789062-9.070313 0-13.164063-4.015625-16.152344-6.953125-1.675781-1.644531-3.121094-3.066406-4.996094-3.066406-3.300781 0-6.128906 3.980469-6.128906 7.242187 0 5.503907 8.183594 13.167969 21.457031 15.078126v11.027343c0 4.277344 3.46875 7.742188 7.746094 7.742188 4.273438 0 7.742188-3.464844 7.742188-7.742188v-11.617187c12.34375-3.003906 19.460937-12.4375 19.460937-26.484375zm0 0"/><path d="m131.09375 297.410156h-9.089844c-13.257812 0-24.902344-7.910156-31.402344-19.753906h28.089844c4.277344 0 7.746094-3.46875 7.746094-7.742188 0-4.277343-3.46875-7.746093-7.746094-7.746093h-33.152344c-.367187-2.734375-.449218-5.007813-.390624-7.394531h33.542968c4.277344 0 7.746094-3.464844 7.746094-7.742188s-3.46875-7.742188-7.746094-7.742188h-30.457031c5.714844-14.601562 18.699219-24.828124 33.769531-24.828124h9.089844c4.277344 0 7.742188-3.464844 7.742188-7.742188s-3.464844-7.742188-7.742188-7.742188h-9.089844c-23.550781 0-43.515625 17-50.082031 40.3125h-16.617187c-4.277344 0-7.746094 3.464844-7.746094 7.742188s3.46875 7.742188 7.746094 7.742188h14.359374c-.039062 2.167968-.023437 4.246093.292969 7.394531h-14.652343c-4.277344 0-7.746094 3.46875-7.746094 7.746093 0 4.273438 3.46875 7.742188 7.746094 7.742188h18.296874c7.867188 20.664062 26.597657 35.242188 48.402344 35.242188h9.089844c4.277344 0 7.742188-3.46875 7.742188-7.746094 0-4.273438-3.464844-7.742188-7.742188-7.742188zm0 0"/></g></svg>